<mxfile host="app.diagrams.net" modified="2024-05-17T06:42:44.220Z" agent="Mozilla/5.0 (Windows NT 10.0; Win64; x64) AppleWebKit/537.36 (KHTML, like Gecko) Chrome/122.0.0.0 Safari/537.36 Edg/122.0.0.0" etag="bFpi3yN38n39cf38bG8N" version="24.4.0" type="github">
  <diagram name="第 1 页" id="j2Sz2kMpG6LUrLYbmrEo">
    <mxGraphModel dx="1215" dy="683" grid="1" gridSize="10" guides="1" tooltips="1" connect="1" arrows="1" fold="1" page="1" pageScale="1" pageWidth="827" pageHeight="1169" math="0" shadow="0">
      <root>
        <mxCell id="0" />
        <mxCell id="1" parent="0" />
        <mxCell id="4Kpe6AsjYFgdN-xL9Qs_-1" value="" style="shape=or;whiteSpace=wrap;html=1;rotation=-90;strokeWidth=2;fillColor=#dae8fc;strokeColor=#6c8ebf;" vertex="1" parent="1">
          <mxGeometry x="49" y="84" width="60" height="50" as="geometry" />
        </mxCell>
        <mxCell id="4Kpe6AsjYFgdN-xL9Qs_-7" value="&lt;font style=&quot;font-size: 10px;&quot;&gt;&lt;b&gt;CH 1&lt;/b&gt;&lt;/font&gt;" style="text;strokeColor=none;align=center;fillColor=none;html=1;verticalAlign=middle;whiteSpace=wrap;rounded=0;" vertex="1" parent="1">
          <mxGeometry x="59" y="99" width="40" height="20" as="geometry" />
        </mxCell>
        <mxCell id="4Kpe6AsjYFgdN-xL9Qs_-9" value="" style="shape=or;whiteSpace=wrap;html=1;rotation=-90;strokeWidth=2;fillColor=#d5e8d4;strokeColor=#82b366;" vertex="1" parent="1">
          <mxGeometry x="100.5" y="84" width="60" height="50" as="geometry" />
        </mxCell>
        <mxCell id="4Kpe6AsjYFgdN-xL9Qs_-10" value="&lt;font style=&quot;font-size: 10px;&quot;&gt;&lt;b&gt;CH 2&lt;/b&gt;&lt;/font&gt;" style="text;strokeColor=none;align=center;fillColor=none;html=1;verticalAlign=middle;whiteSpace=wrap;rounded=0;" vertex="1" parent="1">
          <mxGeometry x="110.5" y="99" width="40" height="20" as="geometry" />
        </mxCell>
        <mxCell id="4Kpe6AsjYFgdN-xL9Qs_-11" value="" style="shape=or;whiteSpace=wrap;html=1;rotation=-90;strokeWidth=2;fillColor=#e1d5e7;strokeColor=#9673a6;" vertex="1" parent="1">
          <mxGeometry x="150.5" y="84" width="60" height="50" as="geometry" />
        </mxCell>
        <mxCell id="4Kpe6AsjYFgdN-xL9Qs_-12" value="&lt;font style=&quot;font-size: 10px;&quot;&gt;&lt;b&gt;CH 3&lt;/b&gt;&lt;/font&gt;" style="text;strokeColor=none;align=center;fillColor=none;html=1;verticalAlign=middle;whiteSpace=wrap;rounded=0;" vertex="1" parent="1">
          <mxGeometry x="160.5" y="99" width="40" height="20" as="geometry" />
        </mxCell>
        <mxCell id="4Kpe6AsjYFgdN-xL9Qs_-13" value="" style="shape=or;whiteSpace=wrap;html=1;rotation=-90;strokeWidth=2;fillColor=#fff2cc;strokeColor=#d6b656;" vertex="1" parent="1">
          <mxGeometry x="202" y="84" width="60" height="50" as="geometry" />
        </mxCell>
        <mxCell id="4Kpe6AsjYFgdN-xL9Qs_-15" value="&lt;font style=&quot;font-size: 10px;&quot;&gt;&lt;b&gt;CH 4&lt;/b&gt;&lt;/font&gt;" style="text;strokeColor=none;align=center;fillColor=none;html=1;verticalAlign=middle;whiteSpace=wrap;rounded=0;" vertex="1" parent="1">
          <mxGeometry x="212" y="99" width="40" height="20" as="geometry" />
        </mxCell>
        <mxCell id="4Kpe6AsjYFgdN-xL9Qs_-3" value="" style="shape=crossbar;whiteSpace=wrap;html=1;rounded=1;strokeWidth=2;" vertex="1" parent="1">
          <mxGeometry x="53" y="129" width="205" height="20" as="geometry" />
        </mxCell>
        <mxCell id="4Kpe6AsjYFgdN-xL9Qs_-17" value="" style="shape=crossbar;whiteSpace=wrap;html=1;rounded=1;strokeWidth=2;" vertex="1" parent="1">
          <mxGeometry x="53" y="59" width="51" height="10" as="geometry" />
        </mxCell>
        <mxCell id="4Kpe6AsjYFgdN-xL9Qs_-18" value="&lt;font style=&quot;font-size: 10px;&quot;&gt;&lt;b&gt;250kHz&lt;/b&gt;&lt;/font&gt;" style="text;strokeColor=none;align=center;fillColor=none;html=1;verticalAlign=middle;whiteSpace=wrap;rounded=0;" vertex="1" parent="1">
          <mxGeometry x="60.5" y="34" width="40" height="20" as="geometry" />
        </mxCell>
        <mxCell id="4Kpe6AsjYFgdN-xL9Qs_-19" value="" style="shape=or;whiteSpace=wrap;html=1;rotation=-90;strokeWidth=2;fillColor=#dae8fc;strokeColor=#6c8ebf;" vertex="1" parent="1">
          <mxGeometry x="49" y="219" width="60" height="50" as="geometry" />
        </mxCell>
        <mxCell id="4Kpe6AsjYFgdN-xL9Qs_-23" value="&lt;font style=&quot;font-size: 10px;&quot;&gt;&lt;b&gt;CH 1&lt;/b&gt;&lt;/font&gt;" style="text;strokeColor=none;align=center;fillColor=none;html=1;verticalAlign=middle;whiteSpace=wrap;rounded=0;" vertex="1" parent="1">
          <mxGeometry x="59" y="234" width="40" height="20" as="geometry" />
        </mxCell>
        <mxCell id="4Kpe6AsjYFgdN-xL9Qs_-31" value="" style="group" vertex="1" connectable="0" parent="1">
          <mxGeometry x="94" y="224" width="50" height="60" as="geometry" />
        </mxCell>
        <mxCell id="4Kpe6AsjYFgdN-xL9Qs_-34" value="" style="group" vertex="1" connectable="0" parent="1">
          <mxGeometry x="92" y="214" width="50" height="60" as="geometry" />
        </mxCell>
        <mxCell id="4Kpe6AsjYFgdN-xL9Qs_-24" value="" style="shape=or;whiteSpace=wrap;html=1;rotation=-90;strokeWidth=2;fillColor=#d5e8d4;strokeColor=#82b366;" vertex="1" parent="4Kpe6AsjYFgdN-xL9Qs_-34">
          <mxGeometry x="-5" y="5" width="60" height="50" as="geometry" />
        </mxCell>
        <mxCell id="4Kpe6AsjYFgdN-xL9Qs_-25" value="&lt;font style=&quot;font-size: 10px;&quot;&gt;&lt;b&gt;CH 2&lt;/b&gt;&lt;/font&gt;" style="text;strokeColor=none;align=center;fillColor=none;html=1;verticalAlign=middle;whiteSpace=wrap;rounded=0;" vertex="1" parent="4Kpe6AsjYFgdN-xL9Qs_-34">
          <mxGeometry x="5" y="20" width="40" height="20" as="geometry" />
        </mxCell>
        <mxCell id="4Kpe6AsjYFgdN-xL9Qs_-33" value="" style="endArrow=none;html=1;rounded=0;curved=1;strokeWidth=2;entryX=0.25;entryY=0.5;entryDx=0;entryDy=0;entryPerimeter=0;exitX=0.729;exitY=0.133;exitDx=0;exitDy=0;exitPerimeter=0;dashed=1;fillColor=#dae8fc;strokeColor=#6c8ebf;" edge="1" parent="1" source="4Kpe6AsjYFgdN-xL9Qs_-24" target="4Kpe6AsjYFgdN-xL9Qs_-30">
          <mxGeometry width="50" height="50" relative="1" as="geometry">
            <mxPoint x="99" y="239" as="sourcePoint" />
            <mxPoint x="119" y="279" as="targetPoint" />
            <Array as="points">
              <mxPoint x="104" y="249" />
            </Array>
          </mxGeometry>
        </mxCell>
        <mxCell id="4Kpe6AsjYFgdN-xL9Qs_-36" value="" style="group" vertex="1" connectable="0" parent="1">
          <mxGeometry x="129" y="214" width="50" height="60" as="geometry" />
        </mxCell>
        <mxCell id="4Kpe6AsjYFgdN-xL9Qs_-26" value="" style="shape=or;whiteSpace=wrap;html=1;rotation=-90;strokeWidth=2;fillColor=#e1d5e7;strokeColor=#9673a6;" vertex="1" parent="4Kpe6AsjYFgdN-xL9Qs_-36">
          <mxGeometry x="-5" y="5" width="60" height="50" as="geometry" />
        </mxCell>
        <mxCell id="4Kpe6AsjYFgdN-xL9Qs_-27" value="&lt;font style=&quot;font-size: 10px;&quot;&gt;&lt;b&gt;CH 3&lt;/b&gt;&lt;/font&gt;" style="text;strokeColor=none;align=center;fillColor=none;html=1;verticalAlign=middle;whiteSpace=wrap;rounded=0;" vertex="1" parent="4Kpe6AsjYFgdN-xL9Qs_-36">
          <mxGeometry x="5" y="20" width="40" height="20" as="geometry" />
        </mxCell>
        <mxCell id="4Kpe6AsjYFgdN-xL9Qs_-41" value="" style="endArrow=none;html=1;rounded=0;curved=1;strokeWidth=2;entryX=0.25;entryY=0.5;entryDx=0;entryDy=0;entryPerimeter=0;exitX=0.729;exitY=0.133;exitDx=0;exitDy=0;exitPerimeter=0;dashed=1;fillColor=#d5e8d4;strokeColor=#82b366;" edge="1" parent="4Kpe6AsjYFgdN-xL9Qs_-36">
          <mxGeometry width="50" height="50" relative="1" as="geometry">
            <mxPoint x="7" y="16" as="sourcePoint" />
            <mxPoint x="12" y="60" as="targetPoint" />
            <Array as="points">
              <mxPoint x="12" y="35" />
            </Array>
          </mxGeometry>
        </mxCell>
        <mxCell id="4Kpe6AsjYFgdN-xL9Qs_-64" value="" style="endArrow=none;dashed=1;html=1;rounded=0;fillColor=#d5e8d4;strokeColor=#82b366;" edge="1" parent="4Kpe6AsjYFgdN-xL9Qs_-36">
          <mxGeometry width="50" height="50" relative="1" as="geometry">
            <mxPoint x="6" y="60" as="sourcePoint" />
            <mxPoint x="6" y="20" as="targetPoint" />
          </mxGeometry>
        </mxCell>
        <mxCell id="4Kpe6AsjYFgdN-xL9Qs_-65" value="" style="endArrow=none;dashed=1;html=1;rounded=0;fillColor=#d5e8d4;strokeColor=#82b366;" edge="1" parent="4Kpe6AsjYFgdN-xL9Qs_-36">
          <mxGeometry width="50" height="50" relative="1" as="geometry">
            <mxPoint x="10" y="60" as="sourcePoint" />
            <mxPoint x="10" y="30" as="targetPoint" />
          </mxGeometry>
        </mxCell>
        <mxCell id="4Kpe6AsjYFgdN-xL9Qs_-66" value="" style="endArrow=none;dashed=1;html=1;rounded=0;fillColor=#d5e8d4;strokeColor=#82b366;" edge="1" parent="4Kpe6AsjYFgdN-xL9Qs_-36">
          <mxGeometry width="50" height="50" relative="1" as="geometry">
            <mxPoint x="2" y="60" as="sourcePoint" />
            <mxPoint x="2" y="30" as="targetPoint" />
          </mxGeometry>
        </mxCell>
        <mxCell id="4Kpe6AsjYFgdN-xL9Qs_-37" value="" style="group" vertex="1" connectable="0" parent="1">
          <mxGeometry x="168" y="214" width="50" height="60" as="geometry" />
        </mxCell>
        <mxCell id="4Kpe6AsjYFgdN-xL9Qs_-28" value="" style="shape=or;whiteSpace=wrap;html=1;rotation=-90;strokeWidth=2;fillColor=#fff2cc;strokeColor=#d6b656;" vertex="1" parent="4Kpe6AsjYFgdN-xL9Qs_-37">
          <mxGeometry x="-5" y="5" width="60" height="50" as="geometry" />
        </mxCell>
        <mxCell id="4Kpe6AsjYFgdN-xL9Qs_-29" value="&lt;font style=&quot;font-size: 10px;&quot;&gt;&lt;b&gt;CH 4&lt;/b&gt;&lt;/font&gt;" style="text;strokeColor=none;align=center;fillColor=none;html=1;verticalAlign=middle;whiteSpace=wrap;rounded=0;" vertex="1" parent="4Kpe6AsjYFgdN-xL9Qs_-37">
          <mxGeometry x="5" y="20" width="40" height="20" as="geometry" />
        </mxCell>
        <mxCell id="4Kpe6AsjYFgdN-xL9Qs_-71" value="" style="endArrow=none;dashed=1;html=1;rounded=0;fillColor=#e1d5e7;strokeColor=#9673a6;" edge="1" parent="4Kpe6AsjYFgdN-xL9Qs_-37">
          <mxGeometry width="50" height="50" relative="1" as="geometry">
            <mxPoint x="5" y="60" as="sourcePoint" />
            <mxPoint x="5" y="20" as="targetPoint" />
          </mxGeometry>
        </mxCell>
        <mxCell id="4Kpe6AsjYFgdN-xL9Qs_-72" value="" style="endArrow=none;dashed=1;html=1;rounded=0;fillColor=#e1d5e7;strokeColor=#9673a6;" edge="1" parent="4Kpe6AsjYFgdN-xL9Qs_-37">
          <mxGeometry width="50" height="50" relative="1" as="geometry">
            <mxPoint x="9" y="60" as="sourcePoint" />
            <mxPoint x="9" y="30" as="targetPoint" />
          </mxGeometry>
        </mxCell>
        <mxCell id="4Kpe6AsjYFgdN-xL9Qs_-73" value="" style="endArrow=none;dashed=1;html=1;rounded=0;fillColor=#e1d5e7;strokeColor=#9673a6;" edge="1" parent="4Kpe6AsjYFgdN-xL9Qs_-37">
          <mxGeometry width="50" height="50" relative="1" as="geometry">
            <mxPoint x="1" y="60" as="sourcePoint" />
            <mxPoint x="1" y="30" as="targetPoint" />
          </mxGeometry>
        </mxCell>
        <mxCell id="4Kpe6AsjYFgdN-xL9Qs_-39" value="" style="shape=or;whiteSpace=wrap;html=1;rotation=-90;strokeWidth=2;fillColor=#f8cecc;strokeColor=#b85450;" vertex="1" parent="1">
          <mxGeometry x="202" y="219" width="60" height="50" as="geometry" />
        </mxCell>
        <mxCell id="4Kpe6AsjYFgdN-xL9Qs_-40" value="&lt;font style=&quot;font-size: 10px;&quot;&gt;&lt;b&gt;CH 5&lt;/b&gt;&lt;/font&gt;" style="text;strokeColor=none;align=center;fillColor=none;html=1;verticalAlign=middle;whiteSpace=wrap;rounded=0;" vertex="1" parent="1">
          <mxGeometry x="212" y="234" width="40" height="20" as="geometry" />
        </mxCell>
        <mxCell id="4Kpe6AsjYFgdN-xL9Qs_-30" value="" style="shape=crossbar;whiteSpace=wrap;html=1;rounded=1;strokeWidth=2;" vertex="1" parent="1">
          <mxGeometry x="53" y="264" width="205" height="20" as="geometry" />
        </mxCell>
        <mxCell id="4Kpe6AsjYFgdN-xL9Qs_-42" value="" style="endArrow=none;html=1;rounded=0;curved=1;strokeWidth=2;entryX=0.25;entryY=0.5;entryDx=0;entryDy=0;entryPerimeter=0;exitX=0.729;exitY=0.133;exitDx=0;exitDy=0;exitPerimeter=0;dashed=1;fillColor=#e1d5e7;strokeColor=#9673a6;" edge="1" parent="1">
          <mxGeometry width="50" height="50" relative="1" as="geometry">
            <mxPoint x="173" y="230" as="sourcePoint" />
            <mxPoint x="178" y="274" as="targetPoint" />
            <Array as="points">
              <mxPoint x="178" y="249" />
            </Array>
          </mxGeometry>
        </mxCell>
        <mxCell id="4Kpe6AsjYFgdN-xL9Qs_-43" value="" style="endArrow=none;html=1;rounded=0;curved=1;strokeWidth=2;entryX=0.25;entryY=0.5;entryDx=0;entryDy=0;entryPerimeter=0;exitX=0.729;exitY=0.133;exitDx=0;exitDy=0;exitPerimeter=0;dashed=1;fillColor=#fff2cc;strokeColor=#d6b656;" edge="1" parent="1">
          <mxGeometry width="50" height="50" relative="1" as="geometry">
            <mxPoint x="213" y="230" as="sourcePoint" />
            <mxPoint x="218" y="274" as="targetPoint" />
            <Array as="points">
              <mxPoint x="218" y="249" />
            </Array>
          </mxGeometry>
        </mxCell>
        <mxCell id="4Kpe6AsjYFgdN-xL9Qs_-67" value="" style="group" vertex="1" connectable="0" parent="1">
          <mxGeometry x="94" y="234" width="8" height="40" as="geometry" />
        </mxCell>
        <mxCell id="4Kpe6AsjYFgdN-xL9Qs_-59" value="" style="endArrow=none;dashed=1;html=1;rounded=0;fillColor=#dae8fc;strokeColor=#6c8ebf;" edge="1" parent="4Kpe6AsjYFgdN-xL9Qs_-67">
          <mxGeometry width="50" height="50" relative="1" as="geometry">
            <mxPoint x="4" y="40" as="sourcePoint" />
            <mxPoint x="4" as="targetPoint" />
          </mxGeometry>
        </mxCell>
        <mxCell id="4Kpe6AsjYFgdN-xL9Qs_-60" value="" style="endArrow=none;dashed=1;html=1;rounded=0;fillColor=#dae8fc;strokeColor=#6c8ebf;" edge="1" parent="4Kpe6AsjYFgdN-xL9Qs_-67">
          <mxGeometry width="50" height="50" relative="1" as="geometry">
            <mxPoint x="8" y="40" as="sourcePoint" />
            <mxPoint x="8" y="10" as="targetPoint" />
          </mxGeometry>
        </mxCell>
        <mxCell id="4Kpe6AsjYFgdN-xL9Qs_-61" value="" style="endArrow=none;dashed=1;html=1;rounded=0;fillColor=#dae8fc;strokeColor=#6c8ebf;" edge="1" parent="4Kpe6AsjYFgdN-xL9Qs_-67">
          <mxGeometry width="50" height="50" relative="1" as="geometry">
            <mxPoint y="40" as="sourcePoint" />
            <mxPoint y="10" as="targetPoint" />
          </mxGeometry>
        </mxCell>
        <mxCell id="4Kpe6AsjYFgdN-xL9Qs_-74" value="" style="endArrow=none;dashed=1;html=1;rounded=0;fillColor=#ffe6cc;strokeColor=#d79b00;" edge="1" parent="1">
          <mxGeometry width="50" height="50" relative="1" as="geometry">
            <mxPoint x="212.86" y="273" as="sourcePoint" />
            <mxPoint x="212.86" y="233" as="targetPoint" />
          </mxGeometry>
        </mxCell>
        <mxCell id="4Kpe6AsjYFgdN-xL9Qs_-75" value="" style="endArrow=none;dashed=1;html=1;rounded=0;fillColor=#ffe6cc;strokeColor=#d79b00;" edge="1" parent="1">
          <mxGeometry width="50" height="50" relative="1" as="geometry">
            <mxPoint x="216.86" y="273" as="sourcePoint" />
            <mxPoint x="216.86" y="243" as="targetPoint" />
          </mxGeometry>
        </mxCell>
        <mxCell id="4Kpe6AsjYFgdN-xL9Qs_-76" value="" style="endArrow=none;dashed=1;html=1;rounded=0;fillColor=#ffe6cc;strokeColor=#d79b00;" edge="1" parent="1">
          <mxGeometry width="50" height="50" relative="1" as="geometry">
            <mxPoint x="208.86" y="273" as="sourcePoint" />
            <mxPoint x="208.86" y="243" as="targetPoint" />
          </mxGeometry>
        </mxCell>
        <mxCell id="4Kpe6AsjYFgdN-xL9Qs_-88" value="&lt;font style=&quot;font-size: 10px;&quot;&gt;&lt;b&gt;915.5MHz&lt;/b&gt;&lt;/font&gt;" style="text;strokeColor=none;align=center;fillColor=none;html=1;verticalAlign=middle;whiteSpace=wrap;rounded=0;" vertex="1" parent="1">
          <mxGeometry x="240.5" y="284" width="40" height="20" as="geometry" />
        </mxCell>
        <mxCell id="4Kpe6AsjYFgdN-xL9Qs_-89" value="&lt;font style=&quot;font-size: 10px;&quot;&gt;&lt;b&gt;914.5MHz&lt;/b&gt;&lt;/font&gt;" style="text;strokeColor=none;align=center;fillColor=none;html=1;verticalAlign=middle;whiteSpace=wrap;rounded=0;" vertex="1" parent="1">
          <mxGeometry x="30.5" y="284" width="40" height="20" as="geometry" />
        </mxCell>
        <mxCell id="4Kpe6AsjYFgdN-xL9Qs_-90" value="&lt;font style=&quot;font-size: 10px;&quot;&gt;&lt;b&gt;915MHz&lt;/b&gt;&lt;/font&gt;" style="text;strokeColor=none;align=center;fillColor=none;html=1;verticalAlign=middle;whiteSpace=wrap;rounded=0;" vertex="1" parent="1">
          <mxGeometry x="132" y="284" width="40" height="20" as="geometry" />
        </mxCell>
        <mxCell id="4Kpe6AsjYFgdN-xL9Qs_-111" value="&lt;b&gt;BW&lt;/b&gt;" style="text;strokeColor=none;align=center;fillColor=none;html=1;verticalAlign=middle;whiteSpace=wrap;rounded=0;" vertex="1" parent="1">
          <mxGeometry x="299" y="49.5" width="60" height="30" as="geometry" />
        </mxCell>
        <mxCell id="4Kpe6AsjYFgdN-xL9Qs_-114" value="&lt;font face=&quot;Times New Roman&quot; style=&quot;font-size: 16px;&quot;&gt;f&lt;/font&gt;" style="text;strokeColor=none;align=center;fillColor=none;html=1;verticalAlign=middle;whiteSpace=wrap;rounded=0;" vertex="1" parent="1">
          <mxGeometry x="308" y="4" width="60" height="30" as="geometry" />
        </mxCell>
        <mxCell id="4Kpe6AsjYFgdN-xL9Qs_-204" value="" style="rounded=0;whiteSpace=wrap;html=1;strokeColor=none;" vertex="1" parent="1">
          <mxGeometry x="240" y="820" width="200.5" height="20" as="geometry" />
        </mxCell>
        <mxCell id="4Kpe6AsjYFgdN-xL9Qs_-205" value="" style="rounded=0;whiteSpace=wrap;html=1;strokeColor=none;container=0;" vertex="1" parent="1">
          <mxGeometry x="285.5" y="840" width="200.5" height="10" as="geometry" />
        </mxCell>
        <mxCell id="4Kpe6AsjYFgdN-xL9Qs_-229" value="" style="group" vertex="1" connectable="0" parent="1">
          <mxGeometry x="315" y="24" width="295.5" height="320" as="geometry" />
        </mxCell>
        <mxCell id="4Kpe6AsjYFgdN-xL9Qs_-217" value="" style="group;strokeColor=none;fillColor=#CCCCCC;fontColor=#ffffff;container=0;" vertex="1" connectable="0" parent="4Kpe6AsjYFgdN-xL9Qs_-229">
          <mxGeometry x="40.5" y="219" width="200" height="15" as="geometry" />
        </mxCell>
        <mxCell id="4Kpe6AsjYFgdN-xL9Qs_-213" value="" style="group;strokeColor=none;fillColor=#CCCCCC;fontColor=#ffffff;container=0;" vertex="1" connectable="0" parent="4Kpe6AsjYFgdN-xL9Qs_-229">
          <mxGeometry x="39.5" y="175" width="200" height="15" as="geometry" />
        </mxCell>
        <mxCell id="4Kpe6AsjYFgdN-xL9Qs_-207" value="" style="group;strokeColor=none;fillColor=#CCCCCC;fontColor=#ffffff;container=0;" vertex="1" connectable="0" parent="4Kpe6AsjYFgdN-xL9Qs_-229">
          <mxGeometry x="39.5" y="131" width="200" height="15" as="geometry" />
        </mxCell>
        <mxCell id="4Kpe6AsjYFgdN-xL9Qs_-227" value="" style="rounded=0;whiteSpace=wrap;html=1;fillColor=#F8CECC;strokeColor=none;container=0;" vertex="1" parent="4Kpe6AsjYFgdN-xL9Qs_-229">
          <mxGeometry x="41.50199999999995" y="234" width="199.25" height="45" as="geometry" />
        </mxCell>
        <mxCell id="4Kpe6AsjYFgdN-xL9Qs_-224" value="" style="rounded=0;whiteSpace=wrap;html=1;fillColor=#FFF4C3;strokeColor=none;container=0;" vertex="1" parent="4Kpe6AsjYFgdN-xL9Qs_-229">
          <mxGeometry x="41.50199999999995" y="189" width="199.25" height="30" as="geometry" />
        </mxCell>
        <mxCell id="4Kpe6AsjYFgdN-xL9Qs_-223" value="" style="rounded=0;whiteSpace=wrap;html=1;fillColor=#E1D5E7;strokeColor=none;container=0;" vertex="1" parent="4Kpe6AsjYFgdN-xL9Qs_-229">
          <mxGeometry x="39.25199999999995" y="146" width="199.25" height="30" as="geometry" />
        </mxCell>
        <mxCell id="4Kpe6AsjYFgdN-xL9Qs_-98" value="" style="rounded=0;whiteSpace=wrap;html=1;fillColor=#D4E1F5;strokeColor=none;container=0;" vertex="1" parent="4Kpe6AsjYFgdN-xL9Qs_-229">
          <mxGeometry x="40.50199999999995" y="40" width="199.25" height="46" as="geometry" />
        </mxCell>
        <mxCell id="4Kpe6AsjYFgdN-xL9Qs_-222" value="" style="rounded=0;whiteSpace=wrap;html=1;fillColor=#D3E8D4;strokeColor=none;container=0;" vertex="1" parent="4Kpe6AsjYFgdN-xL9Qs_-229">
          <mxGeometry x="40.50199999999995" y="101" width="199.25" height="30" as="geometry" />
        </mxCell>
        <mxCell id="4Kpe6AsjYFgdN-xL9Qs_-189" value="" style="endArrow=none;dashed=1;html=1;rounded=0;strokeColor=#000000;" edge="1" parent="4Kpe6AsjYFgdN-xL9Qs_-229">
          <mxGeometry width="50" height="50" relative="1" as="geometry">
            <mxPoint x="38" y="101" as="sourcePoint" />
            <mxPoint x="240" y="101" as="targetPoint" />
          </mxGeometry>
        </mxCell>
        <mxCell id="4Kpe6AsjYFgdN-xL9Qs_-195" value="" style="endArrow=none;html=1;rounded=0;strokeWidth=3;strokeColor=#d6b656;fillColor=#fff2cc;" edge="1" parent="4Kpe6AsjYFgdN-xL9Qs_-229">
          <mxGeometry width="50" height="50" relative="1" as="geometry">
            <mxPoint x="197.12" y="238" as="sourcePoint" />
            <mxPoint x="237.75" y="177" as="targetPoint" />
          </mxGeometry>
        </mxCell>
        <mxCell id="4Kpe6AsjYFgdN-xL9Qs_-109" value="" style="endArrow=classic;html=1;rounded=0;strokeWidth=2;" edge="1" parent="4Kpe6AsjYFgdN-xL9Qs_-229">
          <mxGeometry width="50" height="50" relative="1" as="geometry">
            <mxPoint x="40.5" y="300" as="sourcePoint" />
            <mxPoint x="40" as="targetPoint" />
          </mxGeometry>
        </mxCell>
        <mxCell id="4Kpe6AsjYFgdN-xL9Qs_-206" value="" style="group;strokeColor=none;fillColor=#CCCCCC;fontColor=#ffffff;container=0;" vertex="1" connectable="0" parent="4Kpe6AsjYFgdN-xL9Qs_-229">
          <mxGeometry x="40.75" y="86" width="200" height="15" as="geometry" />
        </mxCell>
        <mxCell id="4Kpe6AsjYFgdN-xL9Qs_-119" value="&lt;font size=&quot;1&quot; style=&quot;&quot;&gt;&lt;b style=&quot;font-size: 14px;&quot;&gt;(b)&lt;/b&gt;&lt;/font&gt;" style="text;strokeColor=none;align=center;fillColor=none;html=1;verticalAlign=middle;whiteSpace=wrap;rounded=0;container=0;" vertex="1" parent="4Kpe6AsjYFgdN-xL9Qs_-229">
          <mxGeometry x="93" y="110" width="40" height="20" as="geometry" />
        </mxCell>
        <mxCell id="4Kpe6AsjYFgdN-xL9Qs_-120" value="&lt;font size=&quot;1&quot; style=&quot;&quot;&gt;&lt;b style=&quot;font-size: 14px;&quot;&gt;(c)&lt;/b&gt;&lt;/font&gt;" style="text;strokeColor=none;align=center;fillColor=none;html=1;verticalAlign=middle;whiteSpace=wrap;rounded=0;container=0;" vertex="1" parent="4Kpe6AsjYFgdN-xL9Qs_-229">
          <mxGeometry x="80" y="280" width="40" height="20" as="geometry" />
        </mxCell>
        <mxCell id="4Kpe6AsjYFgdN-xL9Qs_-135" value="" style="endArrow=none;html=1;rounded=0;strokeWidth=3;strokeColor=#6c8ebf;exitX=0.008;exitY=0.972;exitDx=0;exitDy=0;exitPerimeter=0;fillColor=#dae8fc;" edge="1" parent="4Kpe6AsjYFgdN-xL9Qs_-229">
          <mxGeometry width="50" height="50" relative="1" as="geometry">
            <mxPoint x="40.00199999999995" y="100.75999999999999" as="sourcePoint" />
            <mxPoint x="79" y="40" as="targetPoint" />
          </mxGeometry>
        </mxCell>
        <mxCell id="4Kpe6AsjYFgdN-xL9Qs_-136" value="" style="endArrow=none;html=1;rounded=0;strokeWidth=3;strokeColor=#6c8ebf;exitX=0.127;exitY=0.984;exitDx=0;exitDy=0;exitPerimeter=0;fillColor=#dae8fc;" edge="1" parent="4Kpe6AsjYFgdN-xL9Qs_-229" source="4Kpe6AsjYFgdN-xL9Qs_-117">
          <mxGeometry width="50" height="50" relative="1" as="geometry">
            <mxPoint x="80.15300000000002" y="100.72000000000003" as="sourcePoint" />
            <mxPoint x="119" y="40" as="targetPoint" />
          </mxGeometry>
        </mxCell>
        <mxCell id="4Kpe6AsjYFgdN-xL9Qs_-137" value="" style="endArrow=none;html=1;rounded=0;strokeWidth=3;strokeColor=#6c8ebf;exitX=0.264;exitY=0.979;exitDx=0;exitDy=0;exitPerimeter=0;fillColor=#dae8fc;" edge="1" parent="4Kpe6AsjYFgdN-xL9Qs_-229">
          <mxGeometry width="50" height="50" relative="1" as="geometry">
            <mxPoint x="120.476" y="100.32000000000005" as="sourcePoint" />
            <mxPoint x="160" y="40" as="targetPoint" />
          </mxGeometry>
        </mxCell>
        <mxCell id="4Kpe6AsjYFgdN-xL9Qs_-138" value="" style="endArrow=none;html=1;rounded=0;strokeWidth=3;strokeColor=#6c8ebf;fillColor=#dae8fc;" edge="1" parent="4Kpe6AsjYFgdN-xL9Qs_-229">
          <mxGeometry width="50" height="50" relative="1" as="geometry">
            <mxPoint x="159.37" y="101" as="sourcePoint" />
            <mxPoint x="200" y="40" as="targetPoint" />
          </mxGeometry>
        </mxCell>
        <mxCell id="4Kpe6AsjYFgdN-xL9Qs_-139" value="" style="endArrow=none;html=1;rounded=0;strokeWidth=3;strokeColor=#6c8ebf;fillColor=#dae8fc;" edge="1" parent="4Kpe6AsjYFgdN-xL9Qs_-229">
          <mxGeometry width="50" height="50" relative="1" as="geometry">
            <mxPoint x="200.37" y="101" as="sourcePoint" />
            <mxPoint x="240" y="40" as="targetPoint" />
          </mxGeometry>
        </mxCell>
        <mxCell id="4Kpe6AsjYFgdN-xL9Qs_-140" value="" style="endArrow=none;html=1;rounded=0;strokeWidth=3;strokeColor=#82b366;exitX=0.008;exitY=0.972;exitDx=0;exitDy=0;exitPerimeter=0;fillColor=#d5e8d4;" edge="1" parent="4Kpe6AsjYFgdN-xL9Qs_-229">
          <mxGeometry width="50" height="50" relative="1" as="geometry">
            <mxPoint x="40.00199999999995" y="145.76" as="sourcePoint" />
            <mxPoint x="79" y="85" as="targetPoint" />
          </mxGeometry>
        </mxCell>
        <mxCell id="4Kpe6AsjYFgdN-xL9Qs_-141" value="" style="endArrow=none;html=1;rounded=0;strokeWidth=3;strokeColor=#82b366;exitX=0.127;exitY=0.984;exitDx=0;exitDy=0;exitPerimeter=0;fillColor=#d5e8d4;" edge="1" parent="4Kpe6AsjYFgdN-xL9Qs_-229">
          <mxGeometry width="50" height="50" relative="1" as="geometry">
            <mxPoint x="80.15300000000002" y="145.72000000000003" as="sourcePoint" />
            <mxPoint x="119" y="85" as="targetPoint" />
          </mxGeometry>
        </mxCell>
        <mxCell id="4Kpe6AsjYFgdN-xL9Qs_-142" value="" style="endArrow=none;html=1;rounded=0;strokeWidth=3;strokeColor=#82b366;exitX=0.264;exitY=0.979;exitDx=0;exitDy=0;exitPerimeter=0;fillColor=#d5e8d4;" edge="1" parent="4Kpe6AsjYFgdN-xL9Qs_-229">
          <mxGeometry width="50" height="50" relative="1" as="geometry">
            <mxPoint x="120.476" y="145.32000000000005" as="sourcePoint" />
            <mxPoint x="160" y="85" as="targetPoint" />
          </mxGeometry>
        </mxCell>
        <mxCell id="4Kpe6AsjYFgdN-xL9Qs_-143" value="" style="endArrow=none;html=1;rounded=0;strokeWidth=3;strokeColor=#82b366;fillColor=#d5e8d4;" edge="1" parent="4Kpe6AsjYFgdN-xL9Qs_-229">
          <mxGeometry width="50" height="50" relative="1" as="geometry">
            <mxPoint x="159.37" y="146" as="sourcePoint" />
            <mxPoint x="200" y="85" as="targetPoint" />
          </mxGeometry>
        </mxCell>
        <mxCell id="4Kpe6AsjYFgdN-xL9Qs_-144" value="" style="endArrow=none;html=1;rounded=0;strokeWidth=3;strokeColor=#82b366;fillColor=#d5e8d4;" edge="1" parent="4Kpe6AsjYFgdN-xL9Qs_-229">
          <mxGeometry width="50" height="50" relative="1" as="geometry">
            <mxPoint x="200.37" y="146" as="sourcePoint" />
            <mxPoint x="240" y="85" as="targetPoint" />
          </mxGeometry>
        </mxCell>
        <mxCell id="4Kpe6AsjYFgdN-xL9Qs_-145" value="" style="endArrow=none;html=1;rounded=0;strokeWidth=3;strokeColor=#9673a6;exitX=0.008;exitY=0.972;exitDx=0;exitDy=0;exitPerimeter=0;fillColor=#e1d5e7;" edge="1" parent="4Kpe6AsjYFgdN-xL9Qs_-229">
          <mxGeometry width="50" height="50" relative="1" as="geometry">
            <mxPoint x="40.00199999999995" y="191.76" as="sourcePoint" />
            <mxPoint x="79" y="131" as="targetPoint" />
          </mxGeometry>
        </mxCell>
        <mxCell id="4Kpe6AsjYFgdN-xL9Qs_-146" value="" style="endArrow=none;html=1;rounded=0;strokeWidth=3;strokeColor=#9673a6;exitX=0.127;exitY=0.984;exitDx=0;exitDy=0;exitPerimeter=0;fillColor=#e1d5e7;" edge="1" parent="4Kpe6AsjYFgdN-xL9Qs_-229">
          <mxGeometry width="50" height="50" relative="1" as="geometry">
            <mxPoint x="80.15300000000002" y="191.72000000000003" as="sourcePoint" />
            <mxPoint x="119" y="131" as="targetPoint" />
          </mxGeometry>
        </mxCell>
        <mxCell id="4Kpe6AsjYFgdN-xL9Qs_-147" value="" style="endArrow=none;html=1;rounded=0;strokeWidth=3;strokeColor=#9673a6;exitX=0.264;exitY=0.979;exitDx=0;exitDy=0;exitPerimeter=0;fillColor=#e1d5e7;" edge="1" parent="4Kpe6AsjYFgdN-xL9Qs_-229">
          <mxGeometry width="50" height="50" relative="1" as="geometry">
            <mxPoint x="120.476" y="191.32000000000005" as="sourcePoint" />
            <mxPoint x="160" y="131" as="targetPoint" />
          </mxGeometry>
        </mxCell>
        <mxCell id="4Kpe6AsjYFgdN-xL9Qs_-148" value="" style="endArrow=none;html=1;rounded=0;strokeWidth=3;strokeColor=#9673a6;fillColor=#e1d5e7;" edge="1" parent="4Kpe6AsjYFgdN-xL9Qs_-229">
          <mxGeometry width="50" height="50" relative="1" as="geometry">
            <mxPoint x="159.37" y="192" as="sourcePoint" />
            <mxPoint x="200" y="131" as="targetPoint" />
          </mxGeometry>
        </mxCell>
        <mxCell id="4Kpe6AsjYFgdN-xL9Qs_-149" value="" style="endArrow=none;html=1;rounded=0;strokeWidth=3;strokeColor=#9673a6;fillColor=#e1d5e7;" edge="1" parent="4Kpe6AsjYFgdN-xL9Qs_-229">
          <mxGeometry width="50" height="50" relative="1" as="geometry">
            <mxPoint x="200.37" y="192" as="sourcePoint" />
            <mxPoint x="240" y="131" as="targetPoint" />
          </mxGeometry>
        </mxCell>
        <mxCell id="4Kpe6AsjYFgdN-xL9Qs_-150" value="" style="endArrow=none;html=1;rounded=0;strokeWidth=3;strokeColor=#d6b656;exitX=0.008;exitY=0.972;exitDx=0;exitDy=0;exitPerimeter=0;fillColor=#fff2cc;" edge="1" parent="4Kpe6AsjYFgdN-xL9Qs_-229">
          <mxGeometry width="50" height="50" relative="1" as="geometry">
            <mxPoint x="39.75199999999995" y="234.76" as="sourcePoint" />
            <mxPoint x="78.75" y="174" as="targetPoint" />
          </mxGeometry>
        </mxCell>
        <mxCell id="4Kpe6AsjYFgdN-xL9Qs_-151" value="" style="endArrow=none;html=1;rounded=0;strokeWidth=3;strokeColor=#d6b656;exitX=0.127;exitY=0.984;exitDx=0;exitDy=0;exitPerimeter=0;fillColor=#fff2cc;" edge="1" parent="4Kpe6AsjYFgdN-xL9Qs_-229">
          <mxGeometry width="50" height="50" relative="1" as="geometry">
            <mxPoint x="79.90300000000002" y="234.72000000000003" as="sourcePoint" />
            <mxPoint x="118.75" y="174" as="targetPoint" />
          </mxGeometry>
        </mxCell>
        <mxCell id="4Kpe6AsjYFgdN-xL9Qs_-152" value="" style="endArrow=none;html=1;rounded=0;strokeWidth=3;strokeColor=#d6b656;exitX=0.264;exitY=0.979;exitDx=0;exitDy=0;exitPerimeter=0;fillColor=#fff2cc;" edge="1" parent="4Kpe6AsjYFgdN-xL9Qs_-229">
          <mxGeometry width="50" height="50" relative="1" as="geometry">
            <mxPoint x="120.226" y="234.32000000000005" as="sourcePoint" />
            <mxPoint x="159.75" y="174" as="targetPoint" />
          </mxGeometry>
        </mxCell>
        <mxCell id="4Kpe6AsjYFgdN-xL9Qs_-153" value="" style="endArrow=none;html=1;rounded=0;strokeWidth=3;strokeColor=#d6b656;fillColor=#fff2cc;" edge="1" parent="4Kpe6AsjYFgdN-xL9Qs_-229">
          <mxGeometry width="50" height="50" relative="1" as="geometry">
            <mxPoint x="159.12" y="235" as="sourcePoint" />
            <mxPoint x="199.75" y="174" as="targetPoint" />
          </mxGeometry>
        </mxCell>
        <mxCell id="4Kpe6AsjYFgdN-xL9Qs_-155" value="" style="endArrow=none;html=1;rounded=0;strokeWidth=3;strokeColor=#b85450;exitX=0.008;exitY=0.972;exitDx=0;exitDy=0;exitPerimeter=0;fillColor=#f8cecc;" edge="1" parent="4Kpe6AsjYFgdN-xL9Qs_-229">
          <mxGeometry width="50" height="50" relative="1" as="geometry">
            <mxPoint x="40.75199999999995" y="279.76" as="sourcePoint" />
            <mxPoint x="79.75" y="219" as="targetPoint" />
          </mxGeometry>
        </mxCell>
        <mxCell id="4Kpe6AsjYFgdN-xL9Qs_-156" value="" style="endArrow=none;html=1;rounded=0;strokeWidth=3;strokeColor=#b85450;exitX=0.127;exitY=0.984;exitDx=0;exitDy=0;exitPerimeter=0;fillColor=#f8cecc;" edge="1" parent="4Kpe6AsjYFgdN-xL9Qs_-229" source="4Kpe6AsjYFgdN-xL9Qs_-172">
          <mxGeometry width="50" height="50" relative="1" as="geometry">
            <mxPoint x="80.90300000000002" y="279.72" as="sourcePoint" />
            <mxPoint x="119.75" y="219" as="targetPoint" />
          </mxGeometry>
        </mxCell>
        <mxCell id="4Kpe6AsjYFgdN-xL9Qs_-157" value="" style="endArrow=none;html=1;rounded=0;strokeWidth=3;strokeColor=#b85450;exitX=0.264;exitY=0.979;exitDx=0;exitDy=0;exitPerimeter=0;fillColor=#f8cecc;" edge="1" parent="4Kpe6AsjYFgdN-xL9Qs_-229">
          <mxGeometry width="50" height="50" relative="1" as="geometry">
            <mxPoint x="121.226" y="279.32000000000005" as="sourcePoint" />
            <mxPoint x="160.75" y="219" as="targetPoint" />
          </mxGeometry>
        </mxCell>
        <mxCell id="4Kpe6AsjYFgdN-xL9Qs_-158" value="" style="endArrow=none;html=1;rounded=0;strokeWidth=3;strokeColor=#b85450;fillColor=#f8cecc;" edge="1" parent="4Kpe6AsjYFgdN-xL9Qs_-229">
          <mxGeometry width="50" height="50" relative="1" as="geometry">
            <mxPoint x="160.12" y="280" as="sourcePoint" />
            <mxPoint x="200.75" y="219" as="targetPoint" />
          </mxGeometry>
        </mxCell>
        <mxCell id="4Kpe6AsjYFgdN-xL9Qs_-159" value="" style="endArrow=none;html=1;rounded=0;strokeWidth=3;strokeColor=#b85450;fillColor=#f8cecc;" edge="1" parent="4Kpe6AsjYFgdN-xL9Qs_-229">
          <mxGeometry width="50" height="50" relative="1" as="geometry">
            <mxPoint x="201.12" y="280" as="sourcePoint" />
            <mxPoint x="240.75" y="219" as="targetPoint" />
          </mxGeometry>
        </mxCell>
        <mxCell id="4Kpe6AsjYFgdN-xL9Qs_-165" value="" style="endArrow=none;html=1;rounded=0;strokeWidth=3;strokeColor=#6c8ebf;exitX=0.127;exitY=0.984;exitDx=0;exitDy=0;exitPerimeter=0;fillColor=#dae8fc;" edge="1" parent="4Kpe6AsjYFgdN-xL9Qs_-229" target="4Kpe6AsjYFgdN-xL9Qs_-117">
          <mxGeometry width="50" height="50" relative="1" as="geometry">
            <mxPoint x="80.15300000000002" y="100.72000000000003" as="sourcePoint" />
            <mxPoint x="119" y="40" as="targetPoint" />
          </mxGeometry>
        </mxCell>
        <mxCell id="4Kpe6AsjYFgdN-xL9Qs_-117" value="" style="rounded=0;whiteSpace=wrap;html=1;dashed=1;fillColor=none;strokeWidth=2;strokeColor=#000000;container=0;" vertex="1" parent="4Kpe6AsjYFgdN-xL9Qs_-229">
          <mxGeometry x="80" y="40" width="40" height="60" as="geometry" />
        </mxCell>
        <mxCell id="4Kpe6AsjYFgdN-xL9Qs_-166" value="&lt;font size=&quot;1&quot; style=&quot;&quot;&gt;&lt;b style=&quot;font-size: 14px;&quot;&gt;(a)&lt;/b&gt;&lt;/font&gt;" style="text;strokeColor=none;align=center;fillColor=none;html=1;verticalAlign=middle;whiteSpace=wrap;rounded=0;container=0;" vertex="1" parent="4Kpe6AsjYFgdN-xL9Qs_-229">
          <mxGeometry x="80" y="10" width="40" height="20" as="geometry" />
        </mxCell>
        <mxCell id="4Kpe6AsjYFgdN-xL9Qs_-175" value="" style="endArrow=none;html=1;rounded=0;strokeWidth=3;strokeColor=#b85450;exitX=0.127;exitY=0.984;exitDx=0;exitDy=0;exitPerimeter=0;fillColor=#f8cecc;" edge="1" parent="4Kpe6AsjYFgdN-xL9Qs_-229" target="4Kpe6AsjYFgdN-xL9Qs_-172">
          <mxGeometry width="50" height="50" relative="1" as="geometry">
            <mxPoint x="80.90300000000002" y="279.72" as="sourcePoint" />
            <mxPoint x="119.75" y="219" as="targetPoint" />
          </mxGeometry>
        </mxCell>
        <mxCell id="4Kpe6AsjYFgdN-xL9Qs_-188" value="" style="endArrow=none;dashed=1;html=1;rounded=0;strokeColor=#000000;" edge="1" parent="4Kpe6AsjYFgdN-xL9Qs_-229">
          <mxGeometry width="50" height="50" relative="1" as="geometry">
            <mxPoint x="37" y="86" as="sourcePoint" />
            <mxPoint x="240" y="86" as="targetPoint" />
          </mxGeometry>
        </mxCell>
        <mxCell id="4Kpe6AsjYFgdN-xL9Qs_-110" value="" style="endArrow=classic;html=1;rounded=0;strokeWidth=2;" edge="1" parent="4Kpe6AsjYFgdN-xL9Qs_-229">
          <mxGeometry width="50" height="50" relative="1" as="geometry">
            <mxPoint x="24.5" y="280" as="sourcePoint" />
            <mxPoint x="295.5" y="280" as="targetPoint" />
          </mxGeometry>
        </mxCell>
        <mxCell id="4Kpe6AsjYFgdN-xL9Qs_-218" value="" style="endArrow=none;dashed=1;html=1;rounded=0;strokeColor=#000000;" edge="1" parent="4Kpe6AsjYFgdN-xL9Qs_-229">
          <mxGeometry width="50" height="50" relative="1" as="geometry">
            <mxPoint x="40.25199999999995" y="219" as="sourcePoint" />
            <mxPoint x="240.3368861283643" y="219" as="targetPoint" />
          </mxGeometry>
        </mxCell>
        <mxCell id="4Kpe6AsjYFgdN-xL9Qs_-219" value="" style="endArrow=none;dashed=1;html=1;rounded=0;strokeColor=#000000;" edge="1" parent="4Kpe6AsjYFgdN-xL9Qs_-229">
          <mxGeometry width="50" height="50" relative="1" as="geometry">
            <mxPoint x="40.667113871635536" y="234" as="sourcePoint" />
            <mxPoint x="240.75199999999995" y="234" as="targetPoint" />
          </mxGeometry>
        </mxCell>
        <mxCell id="4Kpe6AsjYFgdN-xL9Qs_-214" value="" style="endArrow=none;dashed=1;html=1;rounded=0;strokeColor=#000000;" edge="1" parent="4Kpe6AsjYFgdN-xL9Qs_-229">
          <mxGeometry width="50" height="50" relative="1" as="geometry">
            <mxPoint x="39.25199999999995" y="175" as="sourcePoint" />
            <mxPoint x="239.3368861283643" y="175" as="targetPoint" />
          </mxGeometry>
        </mxCell>
        <mxCell id="4Kpe6AsjYFgdN-xL9Qs_-215" value="" style="endArrow=none;dashed=1;html=1;rounded=0;strokeColor=#000000;" edge="1" parent="4Kpe6AsjYFgdN-xL9Qs_-229">
          <mxGeometry width="50" height="50" relative="1" as="geometry">
            <mxPoint x="39.667113871635536" y="190" as="sourcePoint" />
            <mxPoint x="239.75199999999995" y="190" as="targetPoint" />
          </mxGeometry>
        </mxCell>
        <mxCell id="4Kpe6AsjYFgdN-xL9Qs_-190" value="" style="endArrow=none;dashed=1;html=1;rounded=0;strokeColor=#000000;" edge="1" parent="4Kpe6AsjYFgdN-xL9Qs_-229">
          <mxGeometry width="50" height="50" relative="1" as="geometry">
            <mxPoint x="39.25199999999995" y="131" as="sourcePoint" />
            <mxPoint x="239.3368861283643" y="131" as="targetPoint" />
          </mxGeometry>
        </mxCell>
        <mxCell id="4Kpe6AsjYFgdN-xL9Qs_-196" value="" style="endArrow=none;dashed=1;html=1;rounded=0;strokeColor=#000000;" edge="1" parent="4Kpe6AsjYFgdN-xL9Qs_-229">
          <mxGeometry width="50" height="50" relative="1" as="geometry">
            <mxPoint x="39.667113871635536" y="146" as="sourcePoint" />
            <mxPoint x="239.75199999999995" y="146" as="targetPoint" />
          </mxGeometry>
        </mxCell>
        <mxCell id="4Kpe6AsjYFgdN-xL9Qs_-161" value="" style="rounded=0;whiteSpace=wrap;html=1;dashed=1;fillColor=none;strokeWidth=2;strokeColor=#000000;container=0;" vertex="1" parent="4Kpe6AsjYFgdN-xL9Qs_-229">
          <mxGeometry x="80" y="130" width="40" height="60" as="geometry" />
        </mxCell>
        <mxCell id="4Kpe6AsjYFgdN-xL9Qs_-172" value="" style="rounded=0;whiteSpace=wrap;html=1;dashed=1;fillColor=none;strokeWidth=2;strokeColor=#000000;container=0;" vertex="1" parent="4Kpe6AsjYFgdN-xL9Qs_-229">
          <mxGeometry x="80" y="220" width="40" height="60" as="geometry" />
        </mxCell>
        <mxCell id="4Kpe6AsjYFgdN-xL9Qs_-112" value="&lt;b&gt;-BW&lt;/b&gt;" style="text;strokeColor=none;align=center;fillColor=none;html=1;verticalAlign=middle;whiteSpace=wrap;rounded=0;" vertex="1" parent="4Kpe6AsjYFgdN-xL9Qs_-229">
          <mxGeometry x="-20.75" y="266" width="60" height="30" as="geometry" />
        </mxCell>
        <mxCell id="4Kpe6AsjYFgdN-xL9Qs_-230" value="&lt;font face=&quot;Times New Roman&quot; style=&quot;font-size: 16px;&quot;&gt;t&lt;/font&gt;" style="text;strokeColor=none;align=center;fillColor=none;html=1;verticalAlign=middle;whiteSpace=wrap;rounded=0;" vertex="1" parent="1">
          <mxGeometry x="569.5" y="304" width="60" height="30" as="geometry" />
        </mxCell>
      </root>
    </mxGraphModel>
  </diagram>
</mxfile>
